# xmcd CD database file
#
# Track frame offsets:
#	150
#	2532
#	17340
#	33692
#	58289
#	105964
#	121623
#	131802
#	175330
#	196445
#	221090
#	240416
#	256917
#	271834
#
# Disc length: 3903 seconds
#
# Revision: 0
# Processed by: cddbd v1.5.2PL0 Copyright (c) Steve Scherf et al.
# Submitted via: CDex 1.51
#
DISCID=b80f3d0e
DTITLE=The Charlie Daniels Band - Live in Bagdhad
DYEAR=2007
DGENRE=Country
TTITLE0=Notte Pericolosa
TTITLE1=In America
TTITLE2=The South's Gonna Do It (Again)
TTITLE3=The Legend of Wooley Swamp
TTITLE4=Saddle Tramp
TTITLE5=Simple Man
TTITLE6=Iraq Blues
TTITLE7=Floreeda Road
TTITLE8=Long Haired Country Boy
TTITLE9=Uneasy Rider
TTITLE10=How Great Thou Art
TTITLE11=Drinkin' My Baby Goodbye
TTITLE12=Rocky Top
TTITLE13=The Devil Went Down to Georgia
EXTD=YEAR: 2007
EXTT0=
EXTT1=
EXTT2=
EXTT3=
EXTT4=
EXTT5=
EXTT6=
EXTT7=
EXTT8=
EXTT9=
EXTT10=
EXTT11=
EXTT12=
EXTT13=
PLAYORDER=
